<svg width="96" height="32" viewBox="0 0 96 32" fill="none" xmlns="http://www.w3.org/2000/svg">
<path fill-rule="evenodd" clip-rule="evenodd" d="M4.93537 1.08016C10.9396 -3.46275 30.9856 8.57756 30.9856 16.1067C30.9856 23.6359 11.4162 34.9455 4.93537 31.165C-1.54542 27.3528 -1.06889 5.59131 4.93537 1.08016ZM12.5598 18.8388C12.5598 20.6179 13.0999 22.111 15.5461 22.111C15.9591 22.111 16.372 22.0157 16.6897 21.8569C17.0392 21.6662 17.2616 21.3803 17.2616 20.9991C17.2616 20.5543 16.9439 20.1414 16.372 20.1414C16.3085 20.1414 16.2767 20.1414 16.1179 20.1731C16.0284 20.1731 15.949 20.1832 15.8796 20.192C15.8259 20.1988 15.7783 20.2049 15.7367 20.2049C15.1648 20.2049 14.8472 19.6966 14.8472 18.8071V14.5183H16.2767C17.1663 14.5183 17.3251 13.9147 17.3251 13.597C17.3251 13.2793 17.1663 12.6757 16.2767 12.6757H14.8472V11.0873C14.8472 10.0389 14.0847 9.84832 13.7035 9.84832C13.3223 9.84832 12.5598 10.0389 12.5598 11.0873V12.6757H11.7974C10.9078 12.6757 10.749 13.2793 10.749 13.597C10.749 13.9147 10.9078 14.5183 11.7974 14.5183H12.5598V18.8388Z" fill="#EB4762"/>
<path d="M42.2952 22.111C39.849 22.111 39.309 20.6179 39.309 18.8388V14.5183H38.5465C37.657 14.5183 37.4982 13.9147 37.4982 13.597C37.4982 13.2793 37.657 12.6757 38.5465 12.6757H39.309V11.0873C39.309 10.0389 40.0714 9.84833 40.4526 9.84833C40.8339 9.84833 41.5963 10.0389 41.5963 11.0873V12.6757H43.0259C43.9154 12.6757 44.0743 13.2793 44.0743 13.597C44.0743 13.9147 43.9154 14.5183 43.0259 14.5183H41.5963V18.8071C41.5963 19.6966 41.914 20.2049 42.4858 20.2049C42.5811 20.2049 42.7082 20.1731 42.8671 20.1731C43.0259 20.1414 43.0577 20.1414 43.1212 20.1414C43.6931 20.1414 44.0107 20.5544 44.0107 20.9991C44.0107 21.3803 43.7884 21.6663 43.4389 21.8569C43.1212 22.0157 42.7082 22.111 42.2952 22.111Z" fill="#717171"/>
<path d="M50.0468 22.1746C47.2511 22.1746 45.0273 20.1414 45.0273 17.2504C45.0273 14.3277 47.2511 12.3898 50.0468 12.3898C52.8424 12.3898 55.0662 14.3277 55.0662 17.2504C55.098 20.1731 52.8424 22.1746 50.0468 22.1746ZM50.0468 14.2959C48.2042 14.2959 47.3782 15.8208 47.3782 17.2504C47.3782 18.68 48.236 20.2684 50.0468 20.2684C51.8894 20.2684 52.7153 18.7118 52.7153 17.2504C52.7153 15.7891 51.8894 14.2959 50.0468 14.2959Z" fill="#717171"/>
<path d="M65.6134 22.0792C65.2639 22.0792 64.5015 21.9204 64.5015 20.872V20.5226H64.4697C63.8343 21.5709 62.5954 22.1745 61.2929 22.1745C58.4654 22.1745 56.7499 19.9507 56.7499 17.2504C56.7499 14.5183 58.5925 12.3898 61.2293 12.3898C62.9131 12.3898 63.8343 13.2476 64.3426 13.8194H64.4062V8.48226C64.4062 7.37036 65.1686 7.17975 65.5499 7.17975C65.9311 7.17975 66.6935 7.37036 66.6935 8.48226V20.872C66.7253 21.9204 65.9628 22.0792 65.6134 22.0792ZM61.7694 20.2684C63.4531 20.2684 64.4697 18.7435 64.4697 17.3139C64.4697 15.8844 63.4531 14.2959 61.7694 14.2959C59.9903 14.2959 59.1008 15.8208 59.1008 17.2504C59.1008 18.68 59.9903 20.2684 61.7694 20.2684Z" fill="#717171"/>
<path d="M77.8443 22.0792C77.4949 22.0792 76.7324 21.9204 76.7324 20.872V20.5226H76.7007C76.0653 21.5709 74.8263 22.1745 73.5238 22.1745C70.6964 22.1745 68.9809 19.9507 68.9809 17.2504C68.9809 14.5183 70.8235 12.3898 73.4603 12.3898C75.144 12.3898 76.0653 13.2476 76.5736 13.8194H76.6371V8.48226C76.6371 7.37036 77.3996 7.17975 77.7808 7.17975C78.162 7.17975 78.9245 7.37036 78.9245 8.48226V20.872C78.9245 21.9204 78.1938 22.0792 77.8443 22.0792ZM74.0003 20.2684C75.6841 20.2684 76.7007 18.7435 76.7007 17.3139C76.7007 15.8844 75.6841 14.2959 74.0003 14.2959C72.2213 14.2959 71.3318 15.8208 71.3318 17.2504C71.3318 18.68 72.1895 20.2684 74.0003 20.2684Z" fill="#717171"/>
<path d="M81.7836 8.48226C81.7836 7.37036 82.5461 7.17975 82.9273 7.17975C83.3085 7.17975 84.071 7.37036 84.071 8.48226V20.8085C84.071 21.9204 83.3085 22.111 82.9273 22.111C82.5461 22.111 81.7836 21.9204 81.7836 20.8085V8.48226Z" fill="#717171"/>
<path d="M88.6774 18.0129C88.7727 19.3154 89.9799 20.3002 91.3142 20.3002C92.2673 20.3002 92.8709 19.9825 93.4427 19.506C93.7604 19.2519 93.9828 19.1883 94.2369 19.1883C94.7452 19.1883 95.1582 19.5695 95.1582 20.1096C95.1582 20.3002 95.0947 20.6497 94.777 20.9356C93.8875 21.7933 92.8391 22.1746 91.346 22.1746C88.4868 22.1746 86.3901 20.332 86.3901 17.3457C86.3901 14.3595 88.4868 12.3898 91.2824 12.3898C93.5062 12.3898 95.3171 13.6606 95.6983 16.3927C95.73 16.5833 95.73 16.7104 95.73 16.8692C95.73 17.6634 95.2853 18.0129 94.5228 18.0129H88.6774ZM93.4109 16.3609C93.4109 15.1537 92.7438 14.1371 91.2189 14.1371C89.8528 14.1371 88.7409 15.0902 88.6456 16.3609H93.4109Z" fill="#717171"/>
</svg>
